<?xml version="1.0"?>
<!--Icons from directory ""-->
<svg xmlns="http://www.w3.org/2000/svg" width="75" height="1125" viewBox="0 0 75 1125"><svg viewBox="0 0 56.673 56.673" width="75" height="75" id="fruit01" y="0"><path d="M31.483 16.213a13.104 13.104 0 0 1-6.292 0c-10.756-2.66-19.762-1.64-19.658 18.643.053 10.39 9.783 23.862 20.009 21.557a12.76 12.76 0 0 1 5.589 0c10.226 2.305 19.956-11.167 20.009-21.557.104-20.282-8.901-21.303-19.657-18.643z" fill="#d13834"/><path d="M10.533 29.674a1 1 0 0 1-1-1c0-5.514 4.037-10 9-10a1 1 0 1 1 0 2c-3.859 0-7 3.589-7 8a1 1 0 0 1-1 1z" fill="#f75b57"/><path d="M28.265 19.999a1 1 0 0 1-.998-.968c-.135-4.232-1.761-9.545-5.922-11.764a1 1 0 1 1 .942-1.765c4.914 2.62 6.827 8.673 6.979 13.465a.999.999 0 0 1-.968 1.031l-.033.001z" fill="#4c312c"/><path d="M28.176 23.592a6.25 6.25 0 0 1-4.45-1.845.999.999 0 1 1 1.414-1.414c.812.812 1.891 1.259 3.036 1.259s2.224-.447 3.035-1.259a.999.999 0 1 1 1.414 1.414 6.248 6.248 0 0 1-4.449 1.845z" fill="#994530"/><path d="M27.305 13.04l.609-4.086A9.916 9.916 0 0 1 36.26.608L40.345 0l-.609 4.086a9.916 9.916 0 0 1-8.346 8.346l-4.085.608z" fill="#659c35"/></svg><svg viewBox="0 0 54.68 54.68" width="75" height="75" id="fruit02" y="75"><path d="M40.801 11.922a12.23 12.23 0 0 1-5.695.67l-5.07-.609 1.712-3.884a23.613 23.613 0 0 0-4.408-.419c-12.979 0-23.5 10.521-23.5 23.5s10.521 23.5 23.5 23.5 23.5-10.521 23.5-23.5c0-7.97-3.971-15.009-10.039-19.258z" fill="#e58d51"/><path d="M10.064 38.138a1 1 0 0 1-.943-.669c-1.36-3.875-1.479-8.152-.335-12.044a1 1 0 0 1 1.919.563c-1.026 3.494-.918 7.336.303 10.818a.999.999 0 0 1-.944 1.332zM11.385 22.851a.999.999 0 0 1-.867-1.496 18.696 18.696 0 0 1 2.697-3.618 1.001 1.001 0 0 1 1.448 1.38 16.792 16.792 0 0 0-2.409 3.231 1.001 1.001 0 0 1-.869.503z" fill="#fbd490"/><path d="M39.964 50.997a23.633 23.633 0 0 0 6.19-5.734 22.523 22.523 0 0 0 1.325-6.901c.227-7.216-3.068-15.469-10.943-17.639l-.017.063c-.01-.005-.017-.014-.028-.019-.096-.041-2.385-.994-6.469-1.081-3.508-.074-6.547-.525-8.207-5.318a1.015 1.015 0 0 0-1.295-.63 1.03 1.03 0 0 0-.623 1.308c2.086 6.023 6.298 6.613 10.082 6.693 3.635.077 5.68.903 5.726.922.128.054.26.08.391.08l.009-.001c6.727 1.923 9.542 9.182 9.342 15.558-.147 4.667-1.917 9.688-5.483 12.699z" fill="#ce6b29"/><path fill="#a46f3e" d="M31.24 17h-1.6l-.8-6h3.2z"/><path d="M49.84.697L44.77.088a12.254 12.254 0 0 0-12.674 7.223l-2.06 4.672 5.07.609A12.254 12.254 0 0 0 47.78 5.369L49.84.697z" fill="#659c35"/><path d="M30.036 11.984l2.266.272 10.076-6.412a1 1 0 0 0-1.074-1.688L30.439 11.07l-.403.914z" fill="#88c057"/></svg><svg viewBox="0 0 53 53" width="75" height="75" id="fruit03" y="150"><path d="M49 33c0 18.25-13.954 20-25 20S4 44.046 4 33s8.954-20 20-20 25 4.063 25 20z" fill="#8f7589"/><path d="M29.639 14.91l-.037-.001a1 1 0 0 1-.963-1.035c.106-2.906 1.115-5.613 2.841-7.622 1.781-2.074 4.116-3.174 6.557-3.076A1 1 0 0 1 39 4.212c-.021.552-.461 1.01-1.036.962-1.839-.057-3.591.779-4.967 2.381-1.432 1.667-2.27 3.937-2.359 6.392a1 1 0 0 1-.999.963z" fill="#6a3311"/><path d="M30.397 8.794l-.41-2.756A6.685 6.685 0 0 0 24.359.41L21.603 0l.41 2.756a6.685 6.685 0 0 0 5.628 5.628l2.756.41z" fill="#436b1c"/><path d="M42.178 39.743a1.002 1.002 0 0 1-.971-1.245c.799-3.16.813-6.445.041-9.501a1 1 0 0 1 1.94-.49c.853 3.377.838 7.001-.041 10.481a1.001 1.001 0 0 1-.969.755zM40.309 24.998c-.348 0-.686-.182-.871-.506a18.068 18.068 0 0 0-1.69-2.471 1 1 0 1 1 1.551-1.263 19.943 19.943 0 0 1 1.878 2.746 1 1 0 0 1-.868 1.494z" fill="#583e68"/><circle cx="21" cy="33" r="17" fill="#fdf0d7"/><path d="M21 39.879a1 1 0 0 1-1-1V27.122a1 1 0 1 1 2 0v11.757a1 1 0 0 1-1 1z" fill="#d13834"/><path d="M16.843 38.157a.999.999 0 0 1-.707-1.707l8.313-8.313a.999.999 0 1 1 1.414 1.414l-8.313 8.313a.997.997 0 0 1-.707.293z" fill="#d13834"/><path d="M26.878 34H15.121a1 1 0 1 1 0-2h11.757a1 1 0 1 1 0 2z" fill="#d13834"/><path d="M25.157 38.157a.997.997 0 0 1-.707-.293l-8.313-8.313a.999.999 0 1 1 1.414-1.414l8.313 8.313a.999.999 0 0 1-.707 1.707z" fill="#d13834"/><circle cx="26" cy="22" r="1" fill="#f58265"/><circle cx="32" cy="28" r="1" fill="#f58265"/><circle cx="32" cy="38" r="1" fill="#f58265"/><circle cx="26" cy="44" r="1" fill="#f58265"/><circle cx="24" cy="40" r="1" fill="#f58265"/><circle cx="28" cy="36" r="1" fill="#f58265"/><circle cx="28" cy="30" r="1" fill="#f58265"/><circle cx="24" cy="26" r="1" fill="#f58265"/><circle cx="18" cy="26" r="1" fill="#f58265"/><circle cx="14" cy="30" r="1" fill="#f58265"/><circle cx="14" cy="36" r="1" fill="#f58265"/><circle cx="18" cy="40" r="1" fill="#f58265"/><circle cx="16" cy="44" r="1" fill="#f58265"/><circle cx="10" cy="38" r="1" fill="#f58265"/><circle cx="10" cy="28" r="1" fill="#f58265"/><circle cx="16" cy="22" r="1" fill="#f58265"/><circle cx="12" cy="24" r="1" fill="#f58265"/><circle cx="30" cy="24" r="1" fill="#f58265"/><circle cx="12" cy="42" r="1" fill="#f58265"/><circle cx="29" cy="41" r="1" fill="#f58265"/><circle cx="21" cy="45" r="1" fill="#f58265"/><circle cx="21" cy="21" r="1" fill="#f58265"/><circle cx="33" cy="33" r="1" fill="#f58265"/><circle cx="9" cy="33" r="1" fill="#f58265"/></svg><svg viewBox="0 0 51.346 51.346" width="75" height="75" id="fruit04" y="225"><path d="M48.971 30.738h-.201c-1.242-7.791-8.122-13.752-16.424-13.752s-15.181 5.961-16.424 13.752h-.201c-1.306 0-2.375 1.303-2.375 2.895s1.069 2.895 2.375 2.895h.333c1.54 7.433 8.249 13.029 16.292 13.029s14.751-5.595 16.292-13.029h.333c1.306 0 2.375-1.303 2.375-2.895s-1.069-2.895-2.375-2.895z" fill="#88c057"/><path d="M13.346 33.633c0-1.592 1.069-2.895 2.375-2.895h.201c1.242-7.791 8.122-13.752 16.424-13.752.31 0 .613.025.918.041a16.7 16.7 0 0 0-7.811-12.659c-7.038-4.404-16.032-3-21.218 2.946l-.17-.107C2.958 6.514 1.361 7.051.516 8.401c-.845 1.35-.63 3.021.478 3.714l.282.177c-2.637 7.119.081 15.42 6.9 19.687a16.9 16.9 0 0 0 5.212 2.153 3.416 3.416 0 0 1-.042-.499z" fill="#659c35"/><path d="M42.346 30.057a1 1 0 0 1-1-1c0-2.481-2.019-4.5-4.5-4.5a1 1 0 1 1 0-2c3.584 0 6.5 2.916 6.5 6.5a1 1 0 0 1-1 1zM10.644 8.557a1 1 0 0 1-.825-1.564c2.189-3.211 6.689-3.97 10.032-1.691a1 1 0 0 1-1.127 1.653c-2.432-1.659-5.684-1.134-7.253 1.166a1 1 0 0 1-.827.436z" fill="#a4e869"/></svg><svg viewBox="0 0 57.614 57.614" width="75" height="75" id="fruit05" y="300"><path d="M2.807 37.614c0-7.738 5.367-14 12-14h2c6.633 0 12 6.262 12 14 0 7.18-5.82 13-13 13s-13-5.821-13-13z" fill="#d13834"/><path d="M13.764 47.386c-.072 0-.146-.008-.219-.024-3.556-.796-6.448-3.395-7.548-6.784a1 1 0 0 1 1.903-.617c.869 2.678 3.257 4.817 6.082 5.449a1 1 0 0 1-.218 1.976zM6.735 36.212a1 1 0 0 1-.982-1.198 11.68 11.68 0 0 1 1.476-3.785 1.002 1.002 0 0 1 1.708 1.042 9.668 9.668 0 0 0-1.222 3.139 1.002 1.002 0 0 1-.98.802zM28.807 44.614c0-7.738 5.367-14 12-14h2c6.633 0 12 6.262 12 14 0 7.18-5.82 13-13 13s-13-5.821-13-13zM23.807 33.614c-3.309 0-6-2.691-6-6a1 1 0 0 1 2 0c0 2.206 1.794 4 4 4a1 1 0 0 1 0 2z" fill="#ed3f32"/><path d="M47.807 40.614c-3.309 0-6-2.691-6-6a1 1 0 0 1 2 0c0 2.206 1.794 4 4 4a1 1 0 0 1 0 2z" fill="#ed7161"/><path d="M45.806 36.614a1 1 0 0 1-.873-1.486c4.228-7.61 3.538-14.017-2.958-24.461-1.583 11.013-11.42 19.919-19.596 19.919a1 1 0 0 1 0-2c7.853 0 17.816-9.875 17.816-20.972a1 1 0 0 1 1.832-.555c7.181 10.772 10.245 18.977 4.654 29.041a1.002 1.002 0 0 1-.875.514z" fill="#4c312c"/><path d="M40.807 7.092c4.012 2.941 10.148 1.38 13.089-2.632-4.012-2.942-10.148-1.38-13.089 2.632z" fill="#88c057"/><path d="M29.807.11c.757 4.917 6.2 8.151 11.117 7.394C40.166 2.587 34.723-.647 29.807.11z" fill="#659c35"/><path d="M39.623 54.731c-.072 0-.146-.008-.219-.024-3.556-.796-6.448-3.396-7.548-6.785a1 1 0 0 1 1.903-.617c.869 2.678 3.257 4.817 6.082 5.45a1.001 1.001 0 0 1-.218 1.976z" fill="#ed7161"/></svg><svg viewBox="0 0 54.354 54.354" width="75" height="75" id="fruit06" y="375"><g fill="#f9e280"><path d="M51.169 8.959c-.154-.291-.306-.583-.474-.87A21.363 21.363 0 0 0 48.59 5.15c2.132 8.869-1.562 18.182-7.06 24.259-11.103 12.273-21.646 16.44-29.053 17.148a35.397 35.397 0 0 1-5.527 1.749c-.088.02-.17.026-.255.04 1.001.153 2.221.27 3.652.27 7.072 0 19.057-2.821 32.666-17.865 5.013-5.542 8.615-13.612 8.156-21.792zM3.728 47.42l-.075.191c.067.026.279.105.618.207a5.494 5.494 0 0 1-.543-.398z"/></g><path d="M6.949 48.306z" fill="#f9d70b"/><path d="M48.411 4.925L45.324 0 43.13 1.446l2.623 5.039c.222.7.538 1.441.542 2.115.067 10.542-8.436 21.51-20.674 30.164-5.038 3.563-8.902 6.035-12.955 7.718l-.192.075.002-.001c7.407-.708 17.95-4.876 29.053-17.148 5.497-6.076 9.191-15.387 7.061-24.255-.061-.073-.116-.155-.179-.228z" fill="#e8c52e"/><path d="M9.634 47.578l.155-.046-.155.046zM51.131 8.89l.037.068c.46 8.18-3.142 16.25-8.156 21.792-13.609 15.045-25.594 17.866-32.666 17.866-1.431 0-2.651-.117-3.652-.27.085-.013.167-.019.255-.04-1.078.248-1.959-.035-2.677-.488a8.846 8.846 0 0 1-.618-.207l.075-.191c-.893-.733-1.48-1.611-1.85-1.621-.72-.02-1.2 1.478-1.254 2.536 8.653 9.16 21.722 7.076 35.425-.952C51.212 38.499 57.806 21.452 51.131 8.89z" fill="#f9d70b"/><path d="M47.313 8.272l1.599-.384a1.018 1.018 0 0 0 .584-1.587c-.332-.458-.68-.902-1.045-1.329a1.023 1.023 0 0 1-.073-.1L45.874.878A1.011 1.011 0 0 0 44.46.571l-.567.374c-.433.285-.58.852-.341 1.312l2.164 4.158a.975.975 0 0 1 .062.149c.109.335.233.677.333 1.017.15.513.68.816 1.202.691z" fill="#b58c30"/></svg><svg viewBox="0 0 53.308 53.308" width="75" height="75" id="fruit07" y="450"><path d="M39.685 2.953c-7.524 0-13.623 6.099-13.623 13.623 0 2.243.552 4.353 1.512 6.219a13.556 13.556 0 0 1 4.804-.888c5.281 0 9.851 3.011 12.111 7.404 5.15-1.944 8.819-6.905 8.819-12.735 0-7.524-6.1-13.623-13.623-13.623z" fill="#003879"/><path d="M18.754 35.53c0-5.652 3.443-10.499 8.345-12.561-.927-6.622-6.598-11.723-13.475-11.723C6.099 11.245 0 17.344 0 24.868s6.099 13.623 13.623 13.623c1.872 0 3.655-.379 5.279-1.062a13.514 13.514 0 0 1-.148-1.899z" fill="#1a49c1"/><circle cx="32.577" cy="35.53" r="14.825" fill="#415cce"/><path d="M28.103 32.153a.999.999 0 0 1-.57-1.823l2.841-1.964a3.053 3.053 0 0 1 3.704.186l2.165 1.839a1 1 0 0 1-1.295 1.525l-2.165-1.839a1.06 1.06 0 0 0-1.272-.064l-2.841 1.964a1.005 1.005 0 0 1-.567.176zM28.606 28.597h-2.355a1 1 0 0 1 0-2h2.355c.48 0 .81-.283.839-.398l.45-1.788a1 1 0 0 1 1.94.488l-.45 1.788c-.276 1.089-1.47 1.91-2.779 1.91zM37.842 28.597a.897.897 0 0 1-.089-.004l-2.894-.256c-1.329-.118-2.405-1.042-2.502-2.149l-.126-1.446a1 1 0 0 1 .909-1.083.985.985 0 0 1 1.083.909l.126 1.445c.025.069.27.294.686.331l2.895.256a1 1 0 0 1-.088 1.997zM9.262 21.651a.999.999 0 0 1-.57-1.823l2.841-1.964a3.054 3.054 0 0 1 3.704.186l2.165 1.838a1 1 0 0 1-1.295 1.525l-2.166-1.839a1.059 1.059 0 0 0-1.271-.064l-2.84 1.964a1.004 1.004 0 0 1-.568.177zM9.765 18.095H7.41a1 1 0 0 1 0-2h2.355c.48 0 .81-.283.839-.398l.45-1.788a1 1 0 0 1 1.94.488l-.45 1.788c-.275 1.089-1.47 1.91-2.779 1.91zM19.001 18.095a.897.897 0 0 1-.089-.004l-2.894-.256c-1.329-.118-2.405-1.042-2.502-2.149l-.126-1.445a1 1 0 0 1 .909-1.083.985.985 0 0 1 1.083.909l.126 1.445c.025.069.27.295.686.332l2.895.256a1 1 0 0 1-.088 1.995z" fill="#121c60"/><path d="M35.262 13.153a.999.999 0 0 1-.57-1.823l2.841-1.964a3.053 3.053 0 0 1 3.704.186l2.165 1.838a1 1 0 0 1-1.295 1.525l-2.166-1.839a1.06 1.06 0 0 0-1.271-.064l-2.841 1.964a.999.999 0 0 1-.567.177zM35.765 9.597H33.41a1 1 0 0 1 0-2h2.355c.48 0 .81-.283.839-.398l.45-1.788a1 1 0 1 1 1.94.488l-.45 1.788c-.275 1.089-1.47 1.91-2.779 1.91zM45.001 9.597a.897.897 0 0 1-.089-.004l-2.894-.256c-1.329-.118-2.405-1.042-2.502-2.149l-.126-1.445a1 1 0 0 1 .909-1.083.986.986 0 0 1 1.083.909l.126 1.445c.025.069.27.295.686.332l2.895.256a1 1 0 0 1-.088 1.995z" fill="#0a1135"/><path d="M7.022 32.153a.986.986 0 0 1-.512-.142c-4.247-2.539-3.635-9.125-3.607-9.404.056-.549.55-.942 1.094-.895a1 1 0 0 1 .896 1.093c-.005.056-.51 5.604 2.643 7.489a1 1 0 0 1-.514 1.859z" fill="#3265d6"/><path d="M24.35 43.307a.983.983 0 0 1-.512-.142c-4.247-2.539-3.635-9.125-3.607-9.404.056-.549.55-.944 1.094-.895a1 1 0 0 1 .896 1.093c-.005.056-.51 5.604 2.643 7.489a1 1 0 0 1-.514 1.859z" fill="#447ce0"/><path d="M29.743 20.366a.997.997 0 0 1-.834-.448c-2.733-4.125.665-9.8.811-10.04a1 1 0 0 1 1.708 1.04c-.029.048-2.881 4.833-.853 7.896a1 1 0 0 1-.832 1.552z" fill="#1951a3"/></svg><svg viewBox="0 0 57.06 57.06" width="75" height="75" id="fruit08" y="525"><path d="M28.758 19.06c16.058 0 15.944 8.507 15.944 19s-7.139 19-15.944 19h-.456c-8.806 0-15.944-8.507-15.944-19s-.114-19 15.944-19" fill="#d6a550"/><path d="M32.51 13.389a12.153 12.153 0 0 1 1.728-1.77c.791-4.56 6.234-8.278 10.119-9.28 0 0-3.318-2.76-7.433-2.284-4.264.493-6.688 2.584-8.055 5.056 2.881 2.25 3.56 5.793 3.641 8.278z" fill="#88c057"/><path d="M23.255 19.411c1.476-.228 3.145-.351 5.048-.351h.056s.167-5.042-5-6c-5.167-.958-6 2-6 2 4.466 1.071 5.604 3.261 5.896 4.351zM34.612 19.553c.819-1.552 4.68-5.279 9.746-6.493 0 0-1.833-3.958-7-3-5.167.958-7.999 9-7.999 9l.069.011c1.971.031 3.689.196 5.184.482z" fill="#659c35"/><path d="M25.988 14.156c2.26 1.652 2.367 4.399 2.37 4.838.335.016.679.014 1.025 0 .145-.395 1.021-2.682 2.565-4.859.059-.115.119-.204.181-.242.074-.101.152-.201.228-.301.052-.067.1-.136.154-.203-.119-3.626-1.506-9.507-9.153-10.329-3.875-.417-7 2-7 2 3.951.947 9.625 4.667 9.63 9.096z" fill="#a4e869"/><g fill="#f4c44e"><path d="M21.358 44.646l-3.707 3.707 1.414 1.414 2.293-2.293 2.293 2.293 1.414-1.414zM24.651 53.353l1.414 1.414 2.293-2.293 2.293 2.293 1.414-1.414-3.707-3.707zM31.651 48.353l1.414 1.414 2.293-2.293 2.293 2.293 1.414-1.414-3.707-3.707zM19.065 41.767l2.293-2.293 2.293 2.293 1.414-1.414-3.707-3.707-3.707 3.707zM28.358 43.474l2.293 2.293 1.414-1.414-3.707-3.707-3.707 3.707 1.414 1.414zM14.498 40.646l-1.707 1.707 1.414 1.414.293-.293 2.293 2.293 1.414-1.414zM35.358 39.474l2.293 2.293 1.414-1.414-3.707-3.707-3.707 3.707 1.414 1.414zM17.651 32.353l1.414 1.414 2.293-2.293 2.293 2.293 1.414-1.414-3.707-3.707zM28.358 35.474l2.293 2.293 1.414-1.414-3.707-3.707-3.707 3.707 1.414 1.414zM35.358 28.646l-3.707 3.707 1.414 1.414 2.293-2.293 2.293 2.293 1.414-1.414zM21.358 23.474l2.293 2.293 1.414-1.414-3.707-3.707-3.707 3.707 1.414 1.414zM26.065 29.767l2.293-2.293 2.293 2.293 1.414-1.414-3.707-3.707-3.707 3.707zM35.358 23.474l2.293 2.293 1.414-1.414-3.707-3.707-3.707 3.707 1.414 1.414zM43.212 25.538l-.699-1.048-3.862 3.863 1.414 1.414 2.138-2.137 1.323 1.985.732-.488c-.22-1.294-.553-2.496-1.046-3.589zM42.16 40.843l-3.51 3.51 1.414 1.414 2.49-2.49 1.355.678c.18-.656.336-1.323.456-2.008l-2.205-1.104zM14.23 24.774a11.63 11.63 0 0 0-.93 2.228l.765.765.293-.293 2.293 2.293 1.414-1.414-3.707-3.707-.128.128zM44.689 34.977l-2.331-2.331-3.707 3.707 1.414 1.414 2.293-2.293 1.293 1.293 1.046-1.046-.008-.744zM12.378 34.626c-.008.474-.014.952-.017 1.437l.704.704 1.293-1.293 2.293 2.293 1.414-1.414-3.707-3.707-1.98 1.98z"/></g></svg><svg viewBox="0 0 57 57" width="75" height="75" id="fruit09" y="600"><path fill="#659c35" d="M29.841 9.386L26.905 10l-2.867-8.545 5-1.455z"/><path d="M36.143 8.465c1.076-.979 1.893-2.161 2.309-3.554-5.457-2.031-7.156.602-7.156.602-.079-1.069-.888-1.522-1.925-1.628l.471 5.5-2.937.615-.001-.002-1.756-5.234c-.524.264-.877.538-.893.749 0 0-1.7-2.633-7.156-.602.429 1.432 1.266 2.654 2.389 3.647-4.387.621-8.419 2.131-10.449 5.844 10.277 3.075 13.336-1.882 13.336-1.882.623 6.736 5.841 8.725 6.63 9 .789-.275 6.007-2.264 6.63-9 0 0 1.127 4.957 11.405 1.882-2.265-3.739-6.497-5.32-10.897-5.937z" fill="#88c057"/><path d="M45.326 14.923c-.015-.018-.027-.038-.042-.056-8.647 2.023-9.65-2.347-9.65-2.347-.623 6.736-5.841 8.725-6.63 9-.789-.275-6.007-2.264-6.63-9 0 0-2.555 4.06-10.726 2.501l-.055.052.073.015c-2.426 2.44-3.705 6.228-3.705 11.964C7.962 39.874 20.848 57 28.5 57c7.652 0 20.538-17.126 20.538-29.949 0-5.843-1.328-9.664-3.842-12.099.042-.008.088-.02.13-.029z" fill="#e22f37"/><path d="M17.295 20.672c-.122-.391-.675-.391-.796 0 0 0-1.516 5.294-1.516 5.805s.199.992.561 1.354c.361.362.842.561 1.353.561s.992-.199 1.353-.561c.362-.362.561-.842.561-1.354s-1.516-5.805-1.516-5.805zM29.123 24.672c-.122-.391-.675-.391-.796 0 0 0-1.516 5.294-1.516 5.805s.199.992.561 1.354c.361.362.842.561 1.353.561s.992-.199 1.353-.561c.362-.362.561-.842.561-1.354s-1.516-5.805-1.516-5.805zM40.295 20.66c-.122-.391-.675-.391-.796 0 0 0-1.516 5.294-1.516 5.805s.199.992.561 1.354c.361.362.842.561 1.353.561s.992-.199 1.353-.561c.362-.362.561-.842.561-1.354s-1.516-5.805-1.516-5.805zM22.123 33.685c-.122-.391-.675-.391-.796 0 0 0-1.516 5.294-1.516 5.805s.199.992.561 1.354c.361.362.842.561 1.353.561s.992-.199 1.353-.561c.362-.362.561-.842.561-1.354s-1.516-5.805-1.516-5.805zM29.123 42.66c-.122-.391-.675-.391-.796 0 0 0-1.516 5.294-1.516 5.805s.199.992.561 1.354c.361.362.842.561 1.353.561s.992-.199 1.353-.561c.362-.362.561-.842.561-1.354s-1.516-5.805-1.516-5.805zM36.123 33.672c-.122-.391-.675-.391-.796 0 0 0-1.516 5.294-1.516 5.805s.199.992.561 1.354c.361.362.842.561 1.353.561s.992-.199 1.353-.561c.362-.362.561-.842.561-1.354s-1.516-5.805-1.516-5.805z" fill="#994530"/></svg><svg viewBox="0 0 56 56" width="75" height="75" id="fruit10" y="675"><circle cx="6" cy="49" r="6" fill="#9777a8"/><circle cx="10" cy="28" r="6" fill="#583e68"/><path d="M16 41a5.995 5.995 0 0 0-5.618 3.91A5.972 5.972 0 0 1 12 49c0 .736-.139 1.438-.382 2.09A5.982 5.982 0 0 0 16 53a6 6 0 1 0 0-12z" fill="#583e68"/><path d="M10.382 44.91a6.01 6.01 0 0 1 3.434-3.481A6.01 6.01 0 0 0 14 40a6 6 0 1 0-12 0c0 1.383.472 2.653 1.258 3.667a5.983 5.983 0 0 1 7.124 1.243zM26 38c-2.858 0-5.244 2-5.848 4.675a5.976 5.976 0 0 1 1.696 5.65A5.976 5.976 0 0 0 26 50a6 6 0 1 0 0-12z" fill="#6f58a8"/><path d="M23.371 38.628A5.936 5.936 0 0 0 24 36a6 6 0 0 0-6-6c-.932 0-1.811.217-2.597.597a6.014 6.014 0 0 1-2.806 2.806 5.994 5.994 0 0 0-.575 2.155A5.974 5.974 0 0 1 14 40c0 .148-.018.291-.03.436.281.255.588.48.913.679A5.959 5.959 0 0 1 16 41c1.15 0 2.22.329 3.133.89a5.918 5.918 0 0 0 1.503-.526 5.986 5.986 0 0 1 2.735-2.736z" fill="#9777a8"/><path d="M28 28c-.774 0-1.506.162-2.184.429a6.005 6.005 0 0 1-3.074 3.904l-.001-.001A5.957 5.957 0 0 1 24 36c0 .734-.146 1.43-.393 2.077.098.105.203.202.308.3a5.972 5.972 0 0 1 6.175 1.241A5.995 5.995 0 0 0 34 34a6 6 0 0 0-6-6z" fill="#583e68"/><path d="M36 34c-.713 0-1.394.13-2.028.359a5.988 5.988 0 0 1-3.882 5.26c-.013-.013-.028-.023-.042-.036A5.976 5.976 0 0 1 32 44c0 .149-.012.296-.022.443A5.97 5.97 0 0 0 36 46a6 6 0 1 0 0-12z" fill="#9777a8"/><path d="M38 24c-.378 0-.747.039-1.106.106a6 6 0 0 1-4.788 4.788 6.287 6.287 0 0 0-.084.663A5.978 5.978 0 0 1 34 34c0 .145-.023.284-.034.427.025-.03 1.327-.427 2.034-.427 1.583 0 3.018.617 4.09 1.618A5.995 5.995 0 0 0 44 30a6 6 0 0 0-6-6z" fill="#583e68"/><path d="M25 11a6 6 0 0 0-5.5 3.605 5.976 5.976 0 0 1 0 4.79 5.986 5.986 0 0 0 1.074 1.634 5.981 5.981 0 0 1 3.85 1.928c.191.018.38.043.576.043a6 6 0 0 1 6-6 6 6 0 0 0-6-6z" fill="#9777a8"/><path d="M14 11a6 6 0 0 0-6 6 5.99 5.99 0 0 0 2.779 5.056 5.963 5.963 0 0 1 2.443.888c.255.033.514.056.778.056a6 6 0 1 0 0-12z" fill="#6f58a8"/><path d="M25.056 23.78l-.007-.013A5.99 5.99 0 0 0 20 21c-.63 0-1.234.105-1.804.285a5.992 5.992 0 0 1-2.375 1.432c-.456.446-.85.955-1.147 1.526A5.971 5.971 0 0 1 16 28c0 .947-.229 1.838-.62 2.635.007-.013.016-.025.022-.038A5.954 5.954 0 0 1 18 30c1.931 0 3.644.916 4.742 2.333A5.996 5.996 0 0 0 26 27c0-.266-.024-.525-.058-.781a5.963 5.963 0 0 1-.886-2.439z" fill="#6f58a8"/><path d="M31 17a6 6 0 0 0-6 6 5.992 5.992 0 0 0 2.711 5.015c.096-.005.191-.015.289-.015a5.97 5.97 0 0 1 3.29.985A5.994 5.994 0 0 0 37 23a6 6 0 0 0-6-6z" fill="#6f58a8"/><path d="M56 26c-6.633 0-12-5.367-12-12 6.633 0 12 5.367 12 12z" fill="#88c057"/><path d="M34 19v-2c7.168 0 13-7.178 13-16h2c0 9.925-6.729 18-15 18z" fill="#7a3726"/></svg><svg viewBox="0 0 51.529 51.529" width="75" height="75" id="fruit11" y="750"><path d="M36.486 12.899l-5.089-.419 1.884-4.746c.308-.775.696-1.499 1.139-2.177a23.913 23.913 0 0 0-9.655-2.027c-13.255 0-24 10.745-24 24s10.745 24 24 24 24-10.745 24-24a23.9 23.9 0 0 0-5.954-15.813 12.233 12.233 0 0 1-6.325 1.182z" fill="#ed8f20"/><circle cx="38.537" cy="18.496" r="2" fill="#ef771d"/><circle cx="43.857" cy="29.651" r="2" fill="#ef771d"/><circle cx="43.537" cy="23.496" r="2" fill="#ef771d"/><circle cx="37.493" cy="27.529" r="2" fill="#ef771d"/><circle cx="38.537" cy="34.496" r="2" fill="#ef771d"/><circle cx="20.537" cy="10.496" r="2" fill="#ef771d"/><circle cx="13.537" cy="13.496" r="2" fill="#ef771d"/><path d="M27.765 11.529s4.25.7 5.4 3.6" fill="#ed8f20"/><path d="M33.165 16.13c-.397 0-.773-.239-.93-.632-.925-2.331-4.599-2.976-4.635-2.982a1 1 0 0 1 .326-1.973c.197.032 4.824.831 6.168 4.218a1 1 0 0 1-.929 1.369z" fill="#9b6026"/><path d="M28.365 14.529a9.796 9.796 0 0 1 3.787-2.567" fill="#ed8f20"/><path d="M28.364 15.529a1 1 0 0 1-.739-1.673 10.811 10.811 0 0 1 4.176-2.831 1.002 1.002 0 0 1 1.288.584 1.001 1.001 0 0 1-.585 1.288 8.796 8.796 0 0 0-3.4 2.304.995.995 0 0 1-.74.328z" fill="#9b6026"/><path d="M50.765.46L45.676.041a12.254 12.254 0 0 0-12.395 7.693l-1.884 4.746 5.089.419a12.255 12.255 0 0 0 12.395-7.693L50.765.46z" fill="#659c35"/><path d="M31.958 11.068l-.561 1.413.718.059c6.258-6.111 13.059-8.117 13.803-8.164l.035-.559.413.413.158-.593-.444-.425c-.598-.132-7.583 1.797-14.122 7.856z" fill="#88c057"/></svg><svg viewBox="0 0 51.679 51.679" width="75" height="75" id="fruit12" y="825"><path d="M40.47 8.458c-2.562-1.642-7.374-3.93-11.997-1.816a.67.67 0 0 1-.952-.607V1.786C27.522.804 26.855 0 26.04 0h-2.223c-.815 0-1.482.804-1.482 1.786v4.501a.67.67 0 0 1-.802.661c-1.877-.387-6.751-.989-11.412 1.795-.638.381-.268 1.381.464 1.247 2.17-.397 5.026-.67 6.956.092a.674.674 0 0 1 .124 1.189c-1.371.895-3.9 2.953-5.557 6.737-.282.644.51 1.221 1.053.774 2.117-1.744 5.6-4.107 8.554-3.726a.68.68 0 0 1 .607.68c-.03 1.982-.005 8.716 1.632 11.265a.675.675 0 0 0 1.117.035c1.043-1.433 3.304-5.233 3.211-11.167a.677.677 0 0 1 .697-.694c1.49.048 5.008.469 7.798 3.194.457.447 1.214.061 1.134-.573-.219-1.735-1.174-4.359-4.631-6.394-.525-.309-.436-1.095.155-1.24 1.194-.293 3.252-.572 6.644-.46.689.021.97-.873.391-1.244z" fill="#88c057"/><path d="M41.248 9.99a.698.698 0 0 0-.314-.12c-.4-.049-.801-.095-1.201-.149-.143-.014-.287-.025-.429-.039-2.914-.048-4.743.206-5.846.474a.674.674 0 0 0-.175 1.244c3.457 2.035 4.411 4.659 4.63 6.393.08.634-.677 1.02-1.134.573-2.79-2.724-6.308-3.145-7.798-3.194a.676.676 0 0 0-.697.694c.092 5.934-2.168 9.734-3.211 11.167a.675.675 0 0 1-1.117-.035c-1.637-2.549-1.662-9.283-1.632-11.265a.681.681 0 0 0-.607-.68c-2.954-.382-6.437 1.982-8.554 3.726-.543.447-1.335-.13-1.053-.774 1.655-3.779 4.18-5.836 5.552-6.733a.674.674 0 0 0-.128-1.19 6.461 6.461 0 0 0-1.203-.324.735.735 0 0 0-.234-.004 57.35 57.35 0 0 0-7.119 1.411.718.718 0 0 0-.278.144C3.597 15.555.393 21.668.393 28.465c0 12.821 11.393 23.214 25.446 23.214s25.446-10.393 25.446-23.214c.001-7.537-3.937-14.235-10.037-18.475z" fill="#d13834"/><path d="M5.791 34.636a.998.998 0 0 1-.861-.49A11.328 11.328 0 0 1 3.473 30a1 1 0 0 1 .844-1.135.991.991 0 0 1 1.135.844 9.457 9.457 0 0 0 1.199 3.418 1 1 0 0 1-.86 1.509zM4.588 26.678a1 1 0 0 1-.999-1.069c.094-1.327.366-2.616.811-3.834a1.001 1.001 0 0 1 1.879.687 11.997 11.997 0 0 0-.694 3.285 1 1 0 0 1-.997.931z" fill="#ed7161"/></svg><svg viewBox="0 0 51.793 51.793" width="75" height="75" id="fruit13" y="900"><path d="M40.876 5.316a1 1 0 0 1-.791-1.61c1.356-1.761 3.189-2.998 5.16-3.483C47.3-.282 49.26.079 50.767 1.241a1 1 0 1 1-1.22 1.584c-1.016-.783-2.372-1.015-3.824-.66-1.532.377-2.973 1.358-4.054 2.762a.998.998 0 0 1-.793.389z" fill="#4c312c"/><path d="M6.914 49.048c-8.105-5.784-7.778-17.04-2.347-25.858 1.985-3.223 4.705-5.931 7.785-8.131L26.934 4.643C30.75 1.338 35.193.431 39.445 3.466 43.698 6.5 44.284 10.997 42.4 15.68l-5.11 17.176c-1.079 3.628-2.756 7.08-5.159 10.005-6.574 8.003-17.112 11.971-25.217 6.187z" fill="#436b1c"/><path d="M9.582 45.309c-5.957-4.252-5.112-13.375-.45-20.794 1.704-2.712 3.948-5.046 6.444-6.988l7.891-5.04c2.423-1.547 4.814-3.153 7.05-4.96 2.226-1.8 4.15-2.558 6.606-.805 2.518 1.797 2.371 3.933 1.327 6.729a47.375 47.375 0 0 0-1.665 5.342L33.907 30.61c-1.025 2.992-2.503 5.873-4.514 8.366-5.501 6.82-13.853 10.585-19.811 6.333z" fill="#f9ea80"/><path d="M24.024 37.754c-2.832 3.969-7.81 5.273-11.117 2.912-3.307-2.36-3.692-7.491-.86-11.46s10.374-8.865 13.681-6.505 1.128 11.084-1.704 15.053z" fill="#a46f3e"/><circle cx="13.868" cy="35.044" r="1.5" fill="#dc9628"/><circle cx="17.894" cy="31.837" r="1.5" fill="#dc9628"/><circle cx="18.307" cy="37.344" r="1.5" fill="#dc9628"/></svg><svg viewBox="0 0 50 50" width="75" height="75" id="fruit14" y="975"><path d="M28.925 0v42c11.598 0 21-9.402 21-21s-9.402-21-21-21z" fill="#f9d70b"/><path d="M8.075 29.377a4 4 0 0 1-8 0c0-1.588 2.068-5.718 3.23-7.913a.871.871 0 0 1 1.54 0c1.162 2.195 3.23 6.324 3.23 7.913z" fill="#f1b501"/><path d="M22.075 46a4 4 0 0 1-8 0c0-1.588 2.068-5.718 3.23-7.913a.871.871 0 0 1 1.54 0c1.162 2.195 3.23 6.325 3.23 7.913z" fill="#f9da49"/><path d="M28.925 7.776c-8.19-5.722-19.54-4.946-26.85 2.364l26.849 26.849V7.776z" fill="#f1b501"/><path d="M28.925 12.949c-6.641-6.619-17.389-6.613-24.021.019l24.021 24.021v-24.04z" fill="#f9da49"/><path d="M28.925 12.949c-.232-.232-.481-.436-.723-.651L17.925 22.575V8.037a17.485 17.485 0 0 0-.396-.019h-1.218c-.129.005-.257.011-.386.019v15.952l1 .999 1 1h10.97v-2h-9.556l9.585-9.586v-1.453z" fill="#f9ea80"/><path d="M28.925 0v42c11.598 0 21-9.402 21-21s-9.402-21-21-21z" fill="#f1b501"/><path d="M28.925 4v34c9.389 0 17-7.611 17-17s-7.612-17-17-17z" fill="#f9ea80"/><path d="M41.619 9.72a17.825 17.825 0 0 0-.261-.288l-.865-.865a23.306 23.306 0 0 0-.287-.261l-11.28 11.28v2.827l11.28 11.28c.098-.087.194-.174.29-.263l.861-.861c.089-.096.177-.192.264-.29L31.339 22h14.535c.019-.333.05-.662.05-1 0-.338-.031-.667-.05-1H31.339l10.28-10.28z" fill="#f9da49"/></svg><svg viewBox="0 0 55.575 55.575" width="75" height="75" id="fruit15" y="1050"><path d="M26.394 10.313c.493.214.974.456 1.431.746a10.242 10.242 0 0 1 1.736-.862c.005-3.197 1.277-5.429 2.1-6.534.164-.22-.05-.504-.315-.431-2.025.552-4.212.083-5.636-.38-.267-.087-.466.222-.3.448 1.407 1.917 1.207 5.275.984 7.013z" fill="#a46f3e"/><path d="M43.709 9.488c-1.913 0-3.741.572-5.351 1.571-1.538-.999-3.325-1.571-5.237-1.571s-3.72.572-5.294 1.571c-1.575-.999-3.382-1.571-5.294-1.571a9.559 9.559 0 0 0-5.237 1.571c-1.611-.999-3.439-1.571-5.351-1.571-18.846 2.509-13.346 42.125 2.354 43.25a9.151 9.151 0 0 0 4.468-1.151 9.618 9.618 0 0 0 4.551 1.151 9.389 9.389 0 0 0 4.51-1.151 9.375 9.375 0 0 0 4.51 1.151 9.627 9.627 0 0 0 4.551-1.151 9.137 9.137 0 0 0 4.468 1.151c17.927 0 19.115-45.438 2.352-43.25z" fill="#ef771d"/><g fill="#f79959"><path d="M43.476 23.023l.058.002a.999.999 0 0 0 .997-.943c.215-3.811-1.077-7.493-3.545-10.104a11.514 11.514 0 0 0-1.648-1.443c-.333.162-.664.328-.981.525a9.561 9.561 0 0 0-5.237-1.571c-1.913 0-3.72.572-5.294 1.571-.261-.166-.537-.301-.81-.442-.544.401-1.062.853-1.542 1.362-2.468 2.611-3.76 6.294-3.544 10.104l.22 3.901a.999.999 0 0 0 .997.943l.058-.002a.998.998 0 0 0 .941-1.055l-.22-3.901c-.184-3.263.91-6.403 3.001-8.616 1.71-1.81 3.945-2.816 6.304-2.857 2.359.041 4.593 1.048 6.303 2.856 2.091 2.213 3.186 5.354 3.002 8.617a.995.995 0 0 0 .94 1.053zM22.531 9.488a9.559 9.559 0 0 0-5.237 1.571c-.317-.197-.65-.363-.983-.526a11.998 11.998 0 0 0-3.221 3.446 1 1 0 1 0 1.699 1.052c1.791-2.889 4.612-4.545 7.742-4.545.527 0 .946-.41.985-.926-.326-.033-.651-.072-.985-.072zM43.937 32.605a1 1 0 0 0-.941-1.055 1.014 1.014 0 0 0-1.055.941l-.581 10.308c-.272 4.819-4.167 8.749-8.752 8.922-3.604-.169-6.68-2.6-7.904-6.3a1 1 0 1 0-1.899.627c.827 2.501 2.361 4.523 4.32 5.867.236-.105.474-.205.699-.328a9.375 9.375 0 0 0 4.51 1.151 9.627 9.627 0 0 0 4.551-1.151c.335.187.683.352 1.042.496 3.054-1.915 5.209-5.308 5.427-9.17l.583-10.308zM24.303 52.675a.993.993 0 0 0-.987-.938c-4.719 0-8.784-4.01-9.063-8.938l-.507-8.997a.992.992 0 0 0-1.055-.941.998.998 0 0 0-.941 1.055l.507 8.997c.218 3.869 2.386 7.261 5.449 9.175a9.09 9.09 0 0 0 1.06-.501 9.618 9.618 0 0 0 4.551 1.151c.333 0 .66-.029.986-.063z"/></g></svg></svg>
